<?xml version="1.0" standalone="no"?><!DOCTYPE svg PUBLIC "-//W3C//DTD SVG 1.1//EN" "http://www.w3.org/Graphics/SVG/1.1/DTD/svg11.dtd"><svg t="1609831197494" class="icon" viewBox="0 0 1024 1024" version="1.1" xmlns="http://www.w3.org/2000/svg" p-id="10513" xmlns:xlink="http://www.w3.org/1999/xlink" width="200" height="200"><defs><style type="text/css"></style></defs><path d="M681.723757 339.447514L500.685083 424.309392 76.375691 214.983425l220.640884-107.491712c0 5.657459 5.657459 5.657459 11.314917 11.314917L681.723757 322.475138V339.447514z m56.574586 33.944751l226.298342-107.491713V792.044199l-452.596685 231.955801V480.883978l169.723757-79.20442v135.779006c0 16.972376 11.314917 28.287293 28.287293 28.287292s28.287293-11.314917 28.287293-28.287292V373.392265zM359.248619 79.20442L517.657459 5.657459l424.309392 209.325966-192.353591 90.519337c0-5.657459-5.657459-11.314917-11.314917-16.972375L359.248619 79.20442zM59.403315 265.900552l396.022099 198.01105v531.801105L59.403315 792.044199V265.900552z" p-id="10514" fill="#bfcbd9"></path></svg>