<?xml version="1.0" standalone="no"?><!DOCTYPE svg PUBLIC "-//W3C//DTD SVG 1.1//EN" "http://www.w3.org/Graphics/SVG/1.1/DTD/svg11.dtd"><svg t="1609482382165" class="icon" viewBox="0 0 1024 1024" version="1.1" xmlns="http://www.w3.org/2000/svg" p-id="2586" xmlns:xlink="http://www.w3.org/1999/xlink" width="200" height="200"><defs><style type="text/css"></style></defs><path d="M474.1 510.2c-116.7 0-211.6-94.6-211.6-211s94.9-211 211.6-211c116.7 0 211.7 94.6 211.7 211 0 116.3-94.9 211-211.7 211zM531.7 794.2c0-92.5 43-174.9 110.1-228.4-51.1-22.4-107.9-34.9-167.7-34.9-221.5 0-401.7 171.4-401.7 382.1h484.5c-16.2-36.3-25.2-76.5-25.2-118.8z" fill="#bfcbd9" p-id="2587"></path><path d="M929 728.4h-16.3c-7.5 0-15.3-5.8-17.6-12.9l-9.4-22.7c-3.5-6.6-2.1-16.2 3.2-21.5l11.5-11.5c5.3-5.3 5.3-13.9 0-19.2l-19.2-19.2c-5.3-5.3-13.9-5.3-19.2 0l-11.5 11.5c-5.3 5.3-15 6.7-21.6 3.2l-22.7-9.3c-7.1-2.2-13-10.1-13-17.6v-16.3c0-7.4-6.1-13.6-13.6-13.6h-27.1c-7.5 0-13.6 6.1-13.6 13.6v16.3c0 7.4-5.8 15.4-12.9 17.6l-22.7 9.3c-6.6 3.5-16.2 2.1-21.5-3.2l-11.6-11.5c-5.3-5.3-13.9-5.3-19.2 0l-19.2 19.2c-5.3 5.3-5.3 13.9 0 19.2l11.5 11.5c5.3 5.3 6.7 15 3.2 21.5l-9.3 22.7c-2.2 7.1-10.1 12.9-17.6 12.9h-16.3c-7.5 0-13.6 6.1-13.6 13.6v27.1c0 7.5 6.1 13.6 13.6 13.6h16.3c7.5 0 15.3 5.9 17.5 13l9.4 22.7c3.5 6.6 2.1 16.3-3.2 21.6l-11.6 11.5c-5.3 5.3-5.3 13.9 0 19.2l19.2 19.2c5.3 5.3 13.9 5.3 19.2 0l11.5-11.5c5.2-5.3 15-6.7 21.5-3.1l22.7 9.4c7.1 2.2 12.9 10.1 12.9 17.5v16.2c0 7.4 6.1 13.6 13.6 13.6h27.1c7.4 0 13.6-6.1 13.6-13.6V902c0-7.5 5.9-15.3 13-17.5l22.7-9.4c6.6-3.5 16.2-2.1 21.6 3.1l11.5 11.5c5.3 5.3 13.9 5.3 19.2 0l19.2-19.2c5.3-5.3 5.3-13.9 0-19.2L889 839.9c-5.3-5.3-6.7-15-3.2-21.6l9.4-22.7c2.2-7.1 10.2-12.9 17.6-12.9H929c7.4 0 13.5-6.1 13.5-13.6V742c0.1-7.4-6-13.6-13.5-13.6z m-94.9 27.1c0 37.5-30.3 67.8-67.8 67.8s-67.8-30.3-67.8-67.8 30.3-67.8 67.8-67.8 67.8 30.4 67.8 67.8z m0 0" fill="#bfcbd9" p-id="2588"></path></svg>