<?xml version="1.0" standalone="no"?><!DOCTYPE svg PUBLIC "-//W3C//DTD SVG 1.1//EN" "http://www.w3.org/Graphics/SVG/1.1/DTD/svg11.dtd"><svg t="1609830947508" class="icon" viewBox="0 0 1024 1024" version="1.1" xmlns="http://www.w3.org/2000/svg" p-id="4797" xmlns:xlink="http://www.w3.org/1999/xlink" width="200" height="200"><defs><style type="text/css"></style></defs><path d="M942.967 352.46L549.274 68.609c-10.309-8.26-24.85-12.425-37.274-12.425-12.425 0-26.965 4.165-37.274 12.425L81.033 352.461c-16.59 12.424-24.85 29.013-24.85 49.698v503.467c0 35.225 26.966 62.122 62.123 62.122h787.32c35.225 0 62.122-26.965 62.122-62.122V402.159c0.069-20.685-8.26-37.274-24.78-49.698z m-612.42 481.827c0 26.692-21.845 48.538-48.537 48.538h-92.297c-26.692 0-48.538-21.846-48.538-48.538v-92.228c0-26.693 21.846-48.538 48.538-48.538h92.228c26.693 0 48.538 21.845 48.538 48.538v92.228z m0-250.13c0 26.693-21.845 48.538-48.537 48.538h-92.297c-26.692 0-48.538-21.845-48.538-48.537V491.93c0-26.693 21.846-48.538 48.538-48.538h92.228c26.693 0 48.538 21.845 48.538 48.538v92.228z m250.061 250.13c0 26.692-21.845 48.538-48.538 48.538h-92.228c-26.692 0-48.537-21.846-48.537-48.538v-92.228c0-26.693 21.845-48.538 48.537-48.538h92.228c26.693 0 48.538 21.845 48.538 48.538v92.228z" p-id="4798" fill="#bfcbd9"></path></svg>